<svg width="32" height="32" viewBox="0 0 32 32" fill="none" xmlns="http://www.w3.org/2000/svg">
<path d="M16.0013 16.7021C18.2104 16.7021 20.0013 14.817 20.0013 12.4916C20.0013 10.1662 18.2104 8.2811 16.0013 8.2811C13.7922 8.2811 12.0013 10.1662 12.0013 12.4916C12.0013 14.817 13.7922 16.7021 16.0013 16.7021Z" fill="white"/>
<path d="M14.668 20.9126H17.3346C18.7491 20.9126 20.1057 21.5041 21.1059 22.5569C22.1061 23.6098 22.668 25.0377 22.668 26.5266V29.3337H9.33463V26.5266C9.33463 25.0377 9.89654 23.6098 10.8967 22.5569C11.8969 21.5041 13.2535 20.9126 14.668 20.9126Z" fill="white"/>
<path d="M20.0013 12.4916C20.0003 11.4993 19.6658 10.5394 19.0569 9.78187C18.448 9.02433 17.6041 8.51805 16.6746 8.35267" fill="white"/>
<path d="M22.0013 2.66708C21.0433 2.67016 20.1039 2.94568 19.2825 3.46449C18.461 3.9833 17.788 4.72613 17.3346 5.61444C18.8395 5.93994 20.1918 6.80174 21.1633 8.05452C22.1349 9.3073 22.6663 10.8744 22.668 12.4916C22.6658 12.9443 22.6211 13.3956 22.5346 13.839C23.898 13.7024 25.1587 13.0176 26.0543 11.927C26.95 10.8365 27.4115 9.42433 27.3428 7.98459C27.274 6.54485 26.6804 5.1885 25.6854 4.19797C24.6904 3.20744 23.3708 2.65908 22.0013 2.66708Z" fill="white"/>
<path d="M12.4893 18.4312C11.3513 17.681 10.452 16.5902 9.90663 15.2986H9.33463C7.56717 15.3008 5.87271 16.0409 4.62293 17.3565C3.37314 18.672 2.67009 20.4557 2.66797 22.3161V25.1231C2.66797 25.4954 2.80844 25.8524 3.05849 26.1156C3.30854 26.3788 3.64768 26.5266 4.0013 26.5266H6.66797C6.67101 24.6948 7.24081 22.9137 8.29114 21.4531C9.34148 19.9925 10.8152 18.9317 12.4893 18.4312Z" fill="white"/>
<path d="M22.668 15.2986H22.096C21.5506 16.5902 20.6513 17.681 19.5133 18.4312C21.1874 18.9317 22.6611 19.9925 23.7115 21.4531C24.7618 22.9137 25.3316 24.6948 25.3346 26.5266H28.0013C28.3549 26.5266 28.6941 26.3788 28.9441 26.1156C29.1942 25.8524 29.3346 25.4954 29.3346 25.1231V22.3161C29.3325 20.4557 28.6295 18.672 27.3797 17.3565C26.1299 16.0409 24.4354 15.3008 22.668 15.2986Z" fill="white"/>
<path d="M9.33464 12.4916C9.33633 10.8744 9.86775 9.30731 10.8393 8.05453C11.8108 6.80175 13.1631 5.93995 14.668 5.61444C14.2327 4.76363 13.5955 4.04594 12.8185 3.53125C12.0415 3.01655 11.1511 2.72238 10.2341 2.67737C9.31704 2.63236 8.40455 2.83804 7.58542 3.2744C6.76629 3.71075 6.06845 4.36291 5.55981 5.16739C5.05117 5.97187 4.74907 6.90127 4.68291 7.86512C4.61676 8.82897 4.7888 9.79443 5.18229 10.6675C5.57578 11.5406 6.17731 12.2916 6.92834 12.8474C7.67937 13.4031 8.5543 13.7448 9.46797 13.839C9.38151 13.3956 9.33685 12.9443 9.33464 12.4916Z" fill="white"/>
</svg>
