<svg width="32" height="32" viewBox="0 0 32 32" fill="none" xmlns="http://www.w3.org/2000/svg">
<path d="M28.9599 15.0575L26.2899 12.3908L16.9451 3.05738C16.6948 2.80741 16.3553 2.66699 16.0013 2.66699C15.6473 2.66699 15.3078 2.80741 15.0575 3.05738L5.71266 12.3908L3.04271 15.0575C2.79954 15.309 2.66498 15.6458 2.66802 15.9954C2.67106 16.345 2.81146 16.6794 3.05897 16.9266C3.30649 17.1738 3.64132 17.3141 3.99134 17.3171C4.34137 17.3201 4.67859 17.1857 4.93036 16.9429L5.32151 16.5522V26.667C5.32151 27.3742 5.60281 28.0525 6.10352 28.5526C6.60423 29.0527 7.28335 29.3337 7.99146 29.3337H11.9964C12.3504 29.3337 12.69 29.1932 12.9403 28.9431C13.1907 28.6931 13.3314 28.3539 13.3314 28.0003V22.6669C13.3314 22.3133 13.472 21.9742 13.7224 21.7241C13.9727 21.474 14.3123 21.3336 14.6663 21.3336H17.3363C17.6903 21.3336 18.0299 21.474 18.2802 21.7241C18.5306 21.9742 18.6712 22.3133 18.6712 22.6669V28.0003C18.6712 28.3539 18.8119 28.6931 19.0623 28.9431C19.3126 29.1932 19.6522 29.3337 20.0062 29.3337H24.0111C24.7193 29.3337 25.3984 29.0527 25.8991 28.5526C26.3998 28.0525 26.6811 27.3742 26.6811 26.667V16.5522L27.0722 16.9429C27.324 17.1857 27.6612 17.3201 28.0113 17.3171C28.3613 17.3141 28.6961 17.1738 28.9436 16.9266C29.1911 16.6794 29.3315 16.345 29.3346 15.9954C29.3376 15.6458 29.2031 15.309 28.9599 15.0575Z" fill="white"/>
</svg>
