<svg width="32" height="32" viewBox="0 0 32 32" fill="none" xmlns="http://www.w3.org/2000/svg">
<path d="M15.9984 2.667C14.0538 2.6651 12.1457 3.19538 10.4809 4.20039C8.81611 5.20539 7.45806 6.64681 6.55389 8.36847C5.64973 10.0901 5.23393 12.0264 5.35154 13.9675C5.46915 15.9085 6.11569 17.7804 7.22111 19.3803C7.26535 19.4673 7.31901 19.5491 7.38111 19.6243L7.54111 19.819C7.69044 20.0123 7.84378 20.199 7.97578 20.3523L14.9691 28.851C15.0945 29.0023 15.2518 29.1241 15.4298 29.2075C15.6077 29.291 15.8019 29.334 15.9984 29.3337C16.1955 29.3338 16.3902 29.2902 16.5684 29.206C16.7466 29.1219 16.904 28.9992 17.0291 28.847L23.8184 20.5737C24.0934 20.278 24.3508 19.9663 24.5891 19.6403L24.7584 19.4337C24.8229 19.3553 24.8776 19.2693 24.9211 19.1777C25.9748 17.5688 26.5739 15.705 26.655 13.7835C26.7361 11.862 26.2962 9.95431 25.3818 8.26237C24.4675 6.57043 23.1127 5.15717 21.4609 4.17218C19.809 3.18719 17.9216 2.66711 15.9984 2.667ZM15.9984 9.33366C16.7896 9.33366 17.5629 9.56826 18.2207 10.0078C18.8785 10.4473 19.3912 11.072 19.694 11.8029C19.9967 12.5338 20.0759 13.3381 19.9216 14.114C19.7672 14.8899 19.3863 15.6027 18.8269 16.1621C18.2675 16.7215 17.5547 17.1025 16.7788 17.2568C16.0029 17.4111 15.1986 17.3319 14.4677 17.0292C13.7368 16.7264 13.1121 16.2137 12.6726 15.5559C12.233 14.8981 11.9984 14.1248 11.9984 13.3337C11.9984 12.2728 12.4199 11.2554 13.17 10.5052C13.9202 9.75509 14.9376 9.33366 15.9984 9.33366Z" fill="white"/>
</svg>
