<svg width="32" height="32" viewBox="0 0 32 32" fill="none" xmlns="http://www.w3.org/2000/svg">
<path d="M16.0013 15.2986C19.5699 15.2986 22.4628 12.4709 22.4628 8.98278C22.4628 5.49467 19.5699 2.66699 16.0013 2.66699C12.4327 2.66699 9.53976 5.49467 9.53976 8.98278C9.53976 12.4709 12.4327 15.2986 16.0013 15.2986Z" fill="#FFFEFE"/>
<path d="M18.1551 16.7021H13.8475C11.944 16.7043 10.1192 17.4444 8.77331 18.7599C7.42739 20.0755 6.67025 21.8591 6.66797 23.7196V27.9302C6.66797 28.3024 6.81925 28.6594 7.08853 28.9226C7.35782 29.1858 7.72304 29.3337 8.10387 29.3337H23.8987C24.2796 29.3337 24.6448 29.1858 24.9141 28.9226C25.1834 28.6594 25.3346 28.3024 25.3346 27.9302V23.7196C25.3324 21.8591 24.5752 20.0755 23.2293 18.7599C21.8834 17.4444 20.0586 16.7043 18.1551 16.7021Z" fill="#FFFEFE"/>
</svg>
